<?xml version="1.0" encoding="utf-8"?>
<!-- Generator: Adobe Illustrator 18.1.1, SVG Export Plug-In . SVG Version: 6.00 Build 0)  -->
<svg version="1.1" id="Layer_1" xmlns="http://www.w3.org/2000/svg" xmlns:xlink="http://www.w3.org/1999/xlink" x="0px" y="0px"
	 viewBox="0 0 26 26" enable-background="new 0 0 26 26" xml:space="preserve">
<g id="_x33_3-communication_-_phone_call">
	<g>
		<path fill="#FFFFFF" d="M24.9,19.3c-0.4-0.3-4.5-3-5-3.4c-0.2-0.1-0.5-0.2-0.8-0.2c-0.4,0-0.8,0.1-1.2,0.3
			c-0.4,0.2-1.6,0.9-2.2,1.2c-0.5-0.4-1.8-1.3-3.7-3.3C10,12.2,9,10.9,8.7,10.4c0.3-0.6,1-1.8,1.2-2.2c0.2-0.4,0.3-0.8,0.3-1.2
			c0-0.3-0.1-0.6-0.2-0.8C9.7,5.7,7,1.5,6.7,1.1C6.4,0.7,6,0.5,5.4,0.5C5,0.5,4.6,0.6,4.2,0.9c0,0-3.7,2.6-3.7,4.1v0
			c0.1,4.3,4.3,9.3,7.7,12.7c3.4,3.4,8.5,7.6,12.7,7.7c0,0,0,0,0,0c1.5,0,4.1-3.6,4.1-3.7c0.3-0.4,0.4-0.8,0.4-1.2
			C25.5,20.1,25.3,19.6,24.9,19.3z M24.3,21.3c-1.2,1.7-2.8,3.2-3.3,3.2c-3.1-0.1-7.3-2.7-12-7.4C5.6,13.8,1.6,9,1.5,5.1
			c0-0.6,1.8-2.3,3.2-3.3C5,1.6,5.2,1.5,5.4,1.5c0.2,0,0.4,0.1,0.5,0.2c0.3,0.4,3,4.5,3.3,5c0,0.1,0.1,0.2,0.1,0.3
			c0,0.2-0.1,0.5-0.2,0.8C8.9,8.1,8.3,9.1,7.8,9.9l-0.3,0.6L7.9,11c0.4,0.6,1.4,1.9,3.4,3.8c2,2,3.3,3,3.8,3.4l0.5,0.4l0.5-0.3
			c0.5-0.3,1.8-1,2.2-1.2c0.3-0.1,0.5-0.2,0.8-0.2c0.1,0,0.2,0,0.3,0.1c0.5,0.3,4.6,3.1,5,3.3c0.1,0.1,0.2,0.2,0.2,0.5
			C24.5,20.8,24.4,21.1,24.3,21.3z"/>
	</g>
</g>
</svg>
