<?xml version="1.0" encoding="utf-8"?>
<!-- Generator: Adobe Illustrator 18.1.1, SVG Export Plug-In . SVG Version: 6.00 Build 0)  -->
<svg version="1.1" id="Layer_1" xmlns="http://www.w3.org/2000/svg" xmlns:xlink="http://www.w3.org/1999/xlink" x="0px" y="0px"
	 viewBox="0 0 540 792" enable-background="new 0 0 540 792" xml:space="preserve">
<path fill="#FFFFFF" d="M434.1,229.8h-70.6v-20.8c0-45.7-37.4-83.1-83.1-83.1h-20.8c-45.7,0-83.1,37.4-83.1,83.1v20.8h-70.6
	c-18.7,0-33.2,14.5-33.2,33.2v351c0,18.7,14.5,33.2,33.2,33.2h328.2c18.7,0,33.2-14.5,33.2-33.2v-81v-270
	C467.3,244.4,452.8,229.8,434.1,229.8z M197.3,209.1c0-41.5,35.3-62.3,62.3-62.3h20.8c27,0,62.3,20.8,62.3,62.3v20.8H197.3V209.1z
	 M448.5,607.8L448.5,607.8c0.1,10.4-6.2,16.6-16.6,16.6H112.1c-10.4,0-18.7-8.3-18.7-16.6v-66.5l0.1-20.8V267.2
	c0-8.3,8.3-16.6,16.6-16.6h66.5v62.3h20.8v-62.3h145.4v62.3h20.8v-62.3h66.5c10.4,0,18.7,8.3,18.7,16.6L448.5,607.8z"/>
</svg>
