<?xml version="1.0" encoding="utf-8"?>
<!-- Generator: Adobe Illustrator 18.1.1, SVG Export Plug-In . SVG Version: 6.00 Build 0)  -->
<svg version="1.1" id="Layer_1" xmlns="http://www.w3.org/2000/svg" xmlns:xlink="http://www.w3.org/1999/xlink" x="0px" y="0px"
	 viewBox="0 0 26 26" enable-background="new 0 0 26 26" xml:space="preserve">
<g id="_x34_-communication_-_bubble_chat_talk_conversation_2_">
	<g>
		<path d="M20.8,0.5H5.2c-2.6,0-4.7,2.1-4.7,4.7v10.3c0,2.6,2.1,4,4.7,4h9.6l6.7,6v-6c2.3-0.2,4-1.5,4-3.9V5.2
			C25.5,2.6,23.4,0.5,20.8,0.5z M24.5,15.5c0,2.7-2.8,3-3.7,3h-0.3v4.8l-5.3-4.8h-10c-0.9,0-3.7-0.2-3.7-3V5.2
			c0-2.1,1.7-3.7,3.7-3.7h15.6c2,0,3.7,1.7,3.7,3.7V15.5z"/>
	</g>
</g>
</svg>
