<?xml version="1.0" encoding="utf-8"?>
<!-- Generator: Adobe Illustrator 18.1.1, SVG Export Plug-In . SVG Version: 6.00 Build 0)  -->
<svg version="1.1" id="Layer_1" xmlns="http://www.w3.org/2000/svg" xmlns:xlink="http://www.w3.org/1999/xlink" x="0px" y="0px"
	 viewBox="0 0 26 26" enable-background="new 0 0 26 26" xml:space="preserve">
<g id="_x36_4-interface_-_arrow_bottom">
	<g>
		<path d="M22.2,7.6c-0.3-0.1-0.6-0.1-0.7,0.2L13,17.3L4.5,7.7C4.3,7.5,4,7.4,3.8,7.6C3.5,7.7,3.4,8,3.6,8.2l8.9,10
			c0.1,0.2,0.3,0.2,0.4,0.2c0,0,0,0,0,0c0,0,0,0,0,0c0.2,0,0.3-0.1,0.4-0.2l8.9-10C22.6,8,22.5,7.7,22.2,7.6z"/>
	</g>
</g>
</svg>
