<?xml version="1.0" encoding="utf-8"?>
<!-- Generator: Adobe Illustrator 18.1.1, SVG Export Plug-In . SVG Version: 6.00 Build 0)  -->
<svg version="1.1" id="Layer_1" xmlns="http://www.w3.org/2000/svg" xmlns:xlink="http://www.w3.org/1999/xlink" x="0px" y="0px"
	 viewBox="0 0 26 26" enable-background="new 0 0 26 26" xml:space="preserve">
<g id="_x35_-editorial_-_pencil">
	<g>
		<path fill="#FFFFFF" d="M20.3,1.1c-2-1.1-4.4-0.5-5.5,1.4l-0.6,0.9l0,0l-0.5,0.9L6.9,15.7c0,0,0,0,0,0L5.6,18l-0.2,6.7l1.4,0.8
			l5.9-3.6l2.5-4.2l6.7-11.3C23,4.5,22.3,2.2,20.3,1.1z M11.8,21.4l-5.2,2.8l-0.1-5.8L7,17.6l5.3,3L11.8,21.4z M14.3,17.2L14.3,17.2
			l-1.5,2.5l-5.3-3L9,14.2l0,0l5.6-9.4l5.3,3L14.3,17.2z M20.9,6l-0.5,0.9l-5.3-3L15.7,3c0.8-1.4,2.7-1.9,4.2-1.1S21.8,4.6,20.9,6z"
			/>
	</g>
</g>
</svg>
