<?xml version="1.0" encoding="utf-8"?>
<!-- Generator: Adobe Illustrator 18.1.1, SVG Export Plug-In . SVG Version: 6.00 Build 0)  -->
<svg version="1.1" id="Layer_1" xmlns="http://www.w3.org/2000/svg" xmlns:xlink="http://www.w3.org/1999/xlink" x="0px" y="0px"
	 viewBox="0 0 26 26" enable-background="new 0 0 26 26" xml:space="preserve">
<g id="_x32_6-communication_-_email_envelope">
	<g>
		<path d="M25.4,3.2C25.3,3,25.1,3,24.9,3.1c-0.1,0-0.1,0-0.2,0H1.3c-0.1,0-0.1,0-0.2,0C0.9,3,0.7,3,0.6,3.2
			C0.5,3.3,0.5,3.5,0.5,3.6c0,0.1,0,0.1,0,0.2v18.4c0,0.4,0.3,0.8,0.8,0.8h23.4c0.4,0,0.8-0.3,0.8-0.8V3.8c0-0.1,0-0.1,0-0.1
			C25.5,3.5,25.5,3.3,25.4,3.2z M23.5,4L13,12L2.5,4H23.5z M24.5,21.3c0,0.4-0.4,0.8-0.8,0.8H2.3c-0.4,0-0.8-0.3-0.8-0.8V4.8
			c0-0.1,0-0.2,0.1-0.3l11.1,8.3c0,0,0,0,0,0C12.7,13,12.9,13,13,13c0.1,0,0.3,0,0.4-0.1c0,0,0,0,0,0l11.1-8.3
			c0,0.1,0.1,0.2,0.1,0.3V21.3z"/>
	</g>
</g>
</svg>
