<?xml version="1.0" encoding="utf-8"?>
<!-- Generator: Adobe Illustrator 18.1.1, SVG Export Plug-In . SVG Version: 6.00 Build 0)  -->
<svg version="1.1" id="Layer_1" xmlns="http://www.w3.org/2000/svg" xmlns:xlink="http://www.w3.org/1999/xlink" x="0px" y="0px"
	 viewBox="0 0 26 26" enable-background="new 0 0 26 26" xml:space="preserve">
<g>
	<path d="M13,1C6.4,1,1,6.4,1,13c0,6.6,5.4,12,12,12s12-5.4,12-12C25,6.4,19.6,1,13,1z"/>
</g>
<path fill="#FFFFFF" d="M20.2,7.9c0-0.2,0-0.4-0.1-0.6c-0.1-0.1-0.3-0.2-0.5-0.2c0,0-0.1,0-0.1,0h-13c0,0-0.1,0-0.1,0
	c-0.2,0-0.4,0-0.5,0.2C5.8,7.4,5.7,7.6,5.7,7.8l0,10.3c0,0.4,0.4,0.8,0.8,0.8h13c0.4,0,0.8-0.3,0.8-0.8L20.2,7.9L20.2,7.9z
	 M17.8,8.4L13,12L8.2,8.4H17.8z M19,17.6C19,17.6,19,17.6,19,17.6L7.1,17.6c0,0-0.1,0-0.1-0.1V9l5.5,4.2l0,0c0.2,0.2,0.6,0.3,0.9,0
	L19,9V17.6z"/>
</svg>
