<?xml version="1.0" encoding="utf-8"?>
<!-- Generator: Adobe Illustrator 18.1.1, SVG Export Plug-In . SVG Version: 6.00 Build 0)  -->
<svg version="1.1" id="Layer_1" xmlns="http://www.w3.org/2000/svg" xmlns:xlink="http://www.w3.org/1999/xlink" x="0px" y="0px"
	 viewBox="0 0 26 26" enable-background="new 0 0 26 26" xml:space="preserve">
<path fill="#281F20" d="M13.7,1c-6.6,0-12,5.4-12,12c0,6.6,5.4,12,12,12s12-5.4,12-12C25.7,6.4,20.3,1,13.7,1z M16.9,13h-2.1
	c0,3.3,0,7.4,0,7.4h-3.1c0,0,0-4,0-7.4h-1.5v-2.6h1.5V8.6c0-1.2,0.6-3.1,3.1-3.1l2.3,0v2.5c0,0-1.4,0-1.7,0c-0.3,0-0.7,0.1-0.7,0.7
	v1.5h2.3L16.9,13z"/>
</svg>
