<?xml version="1.0" encoding="utf-8"?>
<!-- Generator: Adobe Illustrator 18.1.1, SVG Export Plug-In . SVG Version: 6.00 Build 0)  -->
<svg version="1.1" id="Layer_1" xmlns="http://www.w3.org/2000/svg" xmlns:xlink="http://www.w3.org/1999/xlink" x="0px" y="0px"
	 viewBox="0 0 26 26" enable-background="new 0 0 26 26" xml:space="preserve">
<g id="_x31_5-communication_-_bubble_help_question_support">
	<g>
		<path fill="#FFFFFF" d="M12.5,15.7h1.3V14h-1.3V15.7z M20.8,0.5H5.2c-2.6,0-4.7,2-4.7,4.6v9.9c0,2.5,2.1,4.6,4.7,4.6H14l7.5,6
			v-6.1c2.3-0.3,4-2.2,4-4.5V5.1C25.5,2.5,23.4,0.5,20.8,0.5z M24.5,14.9c0,2-1.7,3.6-3.7,3.6h-0.3v4.9l-6.1-4.9H5.2
			c-2,0-3.7-1.6-3.7-3.6V5.1c0-2,1.7-3.6,3.7-3.6h15.6c2,0,3.7,1.6,3.7,3.6V14.9z M15.6,4.8c-0.3-0.3-0.6-0.5-1-0.6
			C14.2,4.1,13.8,4,13.3,4c-0.6,0-1.1,0.1-1.5,0.3C11.4,4.4,11,4.7,10.7,5c-0.3,0.3-0.6,0.7-0.7,1.2c-0.2,0.5-0.2,1-0.2,1.5h1
			c0-0.4,0-0.8,0.1-1.2c0.1-0.4,0.3-0.7,0.5-0.9c0.2-0.3,0.5-0.5,0.8-0.6c0.3-0.1,0.7-0.2,1.1-0.2c0.3,0,0.6,0.1,0.9,0.2
			c0.3,0.1,0.5,0.3,0.7,0.4c0.2,0.2,0.4,0.4,0.5,0.7c0.1,0.3,0.2,0.6,0.2,0.9c0,0.4-0.1,0.8-0.3,1.1c-0.2,0.3-0.4,0.7-0.7,0.9
			c-0.3,0.3-0.6,0.6-0.9,0.8c-0.2,0.2-0.4,0.5-0.6,0.8c-0.1,0.3-0.2,0.6-0.3,0.9c-0.1,0.3-0.1,0.7-0.1,1.2h1c0-0.5,0-0.9,0.1-1.1
			c0-0.3,0.1-0.5,0.2-0.7c0.1-0.2,0.2-0.4,0.4-0.6c0.2-0.2,0.5-0.4,0.8-0.8c0.4-0.4,0.7-0.8,1-1.2c0.3-0.4,0.4-0.9,0.4-1.5
			c0-0.5-0.1-0.9-0.3-1.2C16.2,5.3,15.9,5,15.6,4.8z"/>
	</g>
</g>
</svg>
