<?xml version="1.0" encoding="utf-8"?>
<!-- Generator: Adobe Illustrator 18.1.1, SVG Export Plug-In . SVG Version: 6.00 Build 0)  -->
<svg version="1.1" id="Layer_1" xmlns="http://www.w3.org/2000/svg" xmlns:xlink="http://www.w3.org/1999/xlink" x="0px" y="0px"
	 viewBox="0 0 26 26" enable-background="new 0 0 26 26" xml:space="preserve">
<g id="_x32_2-interface_-_minus_remove">
	<g>
		<path fill="#FFFFFF" d="M13,10.5c-0.3,0-0.5,0.2-0.5,0.5v7c0,0.3,0.2,0.5,0.5,0.5c0.3,0,0.5-0.2,0.5-0.5v-7
			C13.5,10.7,13.3,10.5,13,10.5z M13,1.5C6.6,1.5,1.5,6.6,1.5,13S6.6,24.5,13,24.5c6.4,0,11.5-5.1,11.5-11.5S19.4,1.5,13,1.5z
			 M13,23.5C7.2,23.5,2.5,18.8,2.5,13S7.2,2.5,13,2.5S23.5,7.2,23.5,13S18.8,23.5,13,23.5z"/>
	</g>
</g>
<path fill-rule="evenodd" clip-rule="evenodd" fill="#FFFFFF" d="M12.3,8L12.3,8c0-0.4,0.3-0.7,0.7-0.7c0.4,0,0.7,0.3,0.7,0.7l0,0
	c0,0.4-0.3,0.7-0.7,0.7C12.6,8.7,12.3,8.4,12.3,8z"/>
</svg>
