<?xml version="1.0" encoding="utf-8"?>
<!-- Generator: Adobe Illustrator 18.1.1, SVG Export Plug-In . SVG Version: 6.00 Build 0)  -->
<svg version="1.1" id="Layer_1" xmlns="http://www.w3.org/2000/svg" xmlns:xlink="http://www.w3.org/1999/xlink" x="0px" y="0px"
	 viewBox="0 0 26 26" enable-background="new 0 0 26 26" xml:space="preserve">
<g>
	<polygon fill="#FFFFFF" points="18.7,10.4 18.7,8.5 18.7,8.2 18.4,8.2 16.4,8.2 16.5,10.4 	"/>
	<path fill="#FFFFFF" d="M13.6,15.5c1.3,0,2.3-1,2.3-2.3c0-0.5-0.2-1-0.4-1.3c-0.4-0.6-1.1-1-1.9-1c-0.8,0-1.4,0.4-1.9,1
		c-0.3,0.4-0.4,0.8-0.4,1.3C11.4,14.4,12.4,15.5,13.6,15.5z"/>
	<path fill="#FFFFFF" d="M13.7,1c-6.6,0-12,5.4-12,12c0,6.6,5.4,12,12,12c6.6,0,12-5.4,12-12C25.7,6.4,20.3,1,13.7,1z M20.2,11.8
		v5.3c0,1.4-1.1,2.5-2.5,2.5h-8c-1.4,0-2.5-1.1-2.5-2.5v-5.3V9.2c0-1.4,1.1-2.5,2.5-2.5h8c1.4,0,2.5,1.1,2.5,2.5V11.8z"/>
	<path fill="#FFFFFF" d="M17.2,13.2c0,2-1.6,3.6-3.6,3.6c-2,0-3.6-1.6-3.6-3.6c0-0.5,0.1-0.9,0.3-1.3H8.4v5.3c0,0.7,0.6,1.3,1.2,1.3
		h8c0.7,0,1.3-0.6,1.3-1.3v-5.3H17C17.1,12.3,17.2,12.7,17.2,13.2z"/>
</g>
</svg>
