<?xml version="1.0" encoding="utf-8"?>
<!-- Generator: Adobe Illustrator 18.1.1, SVG Export Plug-In . SVG Version: 6.00 Build 0)  -->
<svg version="1.1" id="Layer_1" xmlns="http://www.w3.org/2000/svg" xmlns:xlink="http://www.w3.org/1999/xlink" x="0px" y="0px"
	 viewBox="0 0 26 26" enable-background="new 0 0 26 26" xml:space="preserve">
<g>
	<path fill="#FFFFFF" d="M13,1C6.4,1,1,6.4,1,13c0,4.9,3,9.1,7.2,11c0-0.8,0-1.8,0.2-2.8c0.2-1,1.5-6.5,1.5-6.5s-0.4-0.8-0.4-1.9
		c0-1.8,1-3.1,2.3-3.1c1.1,0,1.6,0.8,1.6,1.8c0,1.1-0.7,2.7-1.1,4.3c-0.3,1.3,0.6,2.3,1.9,2.3c2.3,0,3.8-2.9,3.8-6.4
		c0-2.6-1.8-4.6-5-4.6c-3.6,0-5.9,2.7-5.9,5.7c0,1,0.3,1.8,0.8,2.4c0.2,0.3,0.3,0.4,0.2,0.7c-0.1,0.2-0.2,0.8-0.2,1
		c-0.1,0.3-0.3,0.4-0.6,0.3c-1.7-0.7-2.5-2.5-2.5-4.6C4.9,9.1,7.8,5,13.5,5c4.6,0,7.6,3.3,7.6,6.9c0,4.7-2.6,8.2-6.5,8.2
		c-1.3,0-2.5-0.7-2.9-1.5c0,0-0.7,2.8-0.8,3.3c-0.3,0.9-0.8,1.9-1.2,2.6c1.1,0.3,2.2,0.5,3.4,0.5c6.6,0,12-5.4,12-12
		C25,6.4,19.6,1,13,1z"/>
</g>
</svg>
