<?xml version="1.0" encoding="utf-8"?>
<!-- Generator: Adobe Illustrator 18.1.1, SVG Export Plug-In . SVG Version: 6.00 Build 0)  -->
<svg version="1.1" id="Layer_1" xmlns="http://www.w3.org/2000/svg" xmlns:xlink="http://www.w3.org/1999/xlink" x="0px" y="0px"
	 viewBox="0 0 26 26" enable-background="new 0 0 26 26" xml:space="preserve">
<g>
	<path fill="#FFFFFF" d="M13,1C6.4,1,1,6.4,1,13c0,6.6,5.4,12,12,12s12-5.4,12-12C25,6.4,19.6,1,13,1z"/>
</g>
<path d="M20.8,7.7h-3.6V4.6H8.8v3.1H5.2C4.9,7.7,4.6,8,4.6,8.3v9.4c0,0.3,0.3,0.6,0.6,0.6h3.6v3.1h8.4v-3.1h3.6
	c0.3,0,0.6-0.3,0.6-0.6V8.3C21.4,8,21.1,7.7,20.8,7.7z M16.1,5.8v2H9.9v-2H16.1z M8.8,14v3.1H6.2c-0.3,0-0.5-0.2-0.5-0.5V9.4
	c0-0.3,0.2-0.5,0.5-0.5h13.5c0.3,0,0.5,0.2,0.5,0.5v7.3c0,0.3-0.2,0.5-0.5,0.5h-2.6V14H8.8z M9.9,20.2v-5.1h6.1v5.1H9.9z"/>
<polygon fill-rule="evenodd" clip-rule="evenodd" points="9.9,10.9 9.9,10.9 9.9,10.9 9.9,9.9 10.9,9.9 10.9,9.9 10.9,9.9 12,9.9 
	12,12 9.9,12 "/>
<polygon fill-rule="evenodd" clip-rule="evenodd" points="6.8,10.9 6.8,10.9 6.8,10.9 6.8,9.9 7.8,9.9 7.8,9.9 7.8,9.9 8.8,9.9 
	8.8,12 6.8,12 "/>
</svg>
