<?xml version="1.0" encoding="utf-8"?>
<!-- Generator: Adobe Illustrator 18.1.1, SVG Export Plug-In . SVG Version: 6.00 Build 0)  -->
<svg version="1.1" id="Layer_1" xmlns="http://www.w3.org/2000/svg" xmlns:xlink="http://www.w3.org/1999/xlink" x="0px" y="0px"
	 viewBox="0 0 26 26" enable-background="new 0 0 26 26" xml:space="preserve">
<g id="_x38_8-interface_-_refresh">
	<g>
		<path d="M25,16.5L25,16.5C25,16.5,25,16.5,25,16.5l-1,0c0,0,0,0,0,0h-7c-0.3,0-0.5,0.2-0.5,0.5c0,0.3,0.2,0.5,0.5,0.5h6.5
			c-1.8,4.1-5.8,7-10.5,7c-5.8,0-10.7-4.4-11.4-10h-1c0.7,6.2,6,11,12.4,11c5.2,0,9.6-3.2,11.5-7.7V25c0,0.3,0.2,0.5,0.5,0.5
			c0.3,0,0.5-0.2,0.5-0.5v-8C25.5,16.7,25.3,16.5,25,16.5z M1,9.5h8c0.3,0,0.5-0.2,0.5-0.5c0-0.3-0.2-0.5-0.5-0.5H2.5
			c1.8-4.1,5.8-7,10.5-7c5.8,0,10.7,4.4,11.4,10h1c-0.7-6.2-6-11-12.4-11c-5.2,0-9.6,3.2-11.5,7.7V1c0-0.3-0.2-0.5-0.5-0.5
			C0.7,0.5,0.5,0.7,0.5,1v8C0.5,9.3,0.7,9.5,1,9.5z"/>
	</g>
</g>
</svg>
