<?xml version="1.0" encoding="utf-8"?>
<!-- Generator: Adobe Illustrator 18.1.1, SVG Export Plug-In . SVG Version: 6.00 Build 0)  -->
<svg version="1.1" id="Layer_1" xmlns="http://www.w3.org/2000/svg" xmlns:xlink="http://www.w3.org/1999/xlink" x="0px" y="0px"
	 viewBox="0 0 26 26" enable-background="new 0 0 26 26" xml:space="preserve">
<g id="_x33_5-interface_-_search">
	<g>
		<path fill="#FFFFFF" d="M25.3,24.6l-6.6-6.6c1.7-1.9,2.7-4.3,2.7-7.1c0-5.8-4.7-10.5-10.5-10.5C5.2,0.5,0.5,5.2,0.5,11
			c0,5.8,4.7,10.5,10.5,10.5c2.7,0,5.2-1,7.1-2.7l6.6,6.6c0.2,0.2,0.5,0.2,0.7,0C25.5,25.1,25.5,24.8,25.3,24.6z M11,20.5
			c-5.2,0-9.5-4.3-9.5-9.5c0-5.2,4.3-9.5,9.5-9.5c5.2,0,9.5,4.3,9.5,9.5C20.5,16.3,16.3,20.5,11,20.5z"/>
	</g>
</g>
</svg>
