<?xml version="1.0" encoding="utf-8"?>
<!-- Generator: Adobe Illustrator 18.1.1, SVG Export Plug-In . SVG Version: 6.00 Build 0)  -->
<svg version="1.1" id="Layer_1" xmlns="http://www.w3.org/2000/svg" xmlns:xlink="http://www.w3.org/1999/xlink" x="0px" y="0px"
	 viewBox="0 0 26 26" enable-background="new 0 0 26 26" xml:space="preserve">
<path fill="#FFFFFF" d="M13.7,1c-6.6,0-12,5.4-12,12c0,6.6,5.4,12,12,12c6.6,0,12-5.4,12-12C25.7,6.4,20.3,1,13.7,1z M19.8,10.6
	c0,0.1,0,0.3,0,0.4c0,4-3,8.6-8.6,8.6c-1.7,0-3.3-0.5-4.6-1.4c0.2,0,0.5,0,0.7,0c1.4,0,2.7-0.5,3.8-1.3c-1.3,0-2.4-0.9-2.8-2.1
	c0.2,0,0.4,0.1,0.6,0.1c0.3,0,0.5,0,0.8-0.1c-1.4-0.3-2.4-1.5-2.4-3c0,0,0,0,0,0C7.5,12,8,12.2,8.5,12.2c-0.8-0.5-1.3-1.5-1.3-2.5
	c0-0.6,0.1-1.1,0.4-1.5c1.5,1.8,3.7,3,6.2,3.2c-0.1-0.2-0.1-0.5-0.1-0.7c0-1.7,1.4-3,3-3c0.9,0,1.7,0.4,2.2,1
	c0.7-0.1,1.3-0.4,1.9-0.7c-0.2,0.7-0.7,1.3-1.3,1.7c0.6-0.1,1.2-0.2,1.7-0.5C20.9,9.6,20.3,10.2,19.8,10.6z"/>
</svg>
