<?xml version="1.0" encoding="utf-8"?>
<!-- Generator: Adobe Illustrator 18.1.1, SVG Export Plug-In . SVG Version: 6.00 Build 0)  -->
<svg version="1.1" id="Layer_1" xmlns="http://www.w3.org/2000/svg" xmlns:xlink="http://www.w3.org/1999/xlink" x="0px" y="0px"
	 viewBox="0 0 26 26" enable-background="new 0 0 26 26" xml:space="preserve">
<g id="_x39_0-interface_-_reverse_back">
	<g>
		<path d="M13,0.5C13,0.5,13,0.5,13,0.5L13,0.5C13,0.5,13,0.5,13,0.5z M17.8,1.5H25c0.3,0,0.5-0.2,0.5-0.5c0-0.3-0.2-0.5-0.5-0.5h-8
			c-0.3,0-0.5,0.2-0.5,0.5v8c0,0.3,0.2,0.5,0.5,0.5c0.3,0,0.5-0.2,0.5-0.5V2.4c4.1,1.8,7,5.8,7,10.5c0,6.4-5.1,11.5-11.5,11.5
			C6.6,24.5,1.5,19.3,1.5,13c0-5.8,4.4-10.7,10-11.4v-1c-6.2,0.7-11,6-11,12.4c0,6.9,5.6,12.5,12.5,12.5c6.9,0,12.5-5.6,12.5-12.5
			C25.5,7.8,22.3,3.4,17.8,1.5z"/>
	</g>
</g>
</svg>
