<?xml version="1.0" encoding="utf-8"?>
<!-- Generator: Adobe Illustrator 18.1.1, SVG Export Plug-In . SVG Version: 6.00 Build 0)  -->
<svg version="1.1" id="Layer_1" xmlns="http://www.w3.org/2000/svg" xmlns:xlink="http://www.w3.org/1999/xlink" x="0px" y="0px"
	 viewBox="0 0 26 26" enable-background="new 0 0 26 26" xml:space="preserve">
<g>
	<polygon fill="#FFFFFF" points="8.6,14 9.5,14 9.5,18.3 10.3,18.3 10.3,14 11.2,14 11.2,13.3 8.6,13.3 	"/>
	<path fill="#FFFFFF" d="M13.7,10.4c0.1,0,0.2,0,0.3-0.1c0.1-0.1,0.1-0.2,0.1-0.3V7.8c0-0.1,0-0.2-0.1-0.2c-0.1-0.1-0.2-0.1-0.3-0.1
		c-0.1,0-0.2,0-0.2,0.1c-0.1,0.1-0.1,0.1-0.1,0.2v2.2c0,0.1,0,0.2,0.1,0.3C13.5,10.4,13.6,10.4,13.7,10.4z"/>
	<path fill="#FFFFFF" d="M15.6,14.6c-0.1,0-0.2,0-0.3,0.1c-0.1,0.1-0.2,0.1-0.3,0.3v-1.6h-0.8v5.1h0.8V18c0.1,0.1,0.2,0.2,0.3,0.3
		c0.1,0.1,0.2,0.1,0.4,0.1c0.2,0,0.4-0.1,0.5-0.2c0.1-0.1,0.2-0.3,0.2-0.6v-2.1c0-0.3-0.1-0.5-0.2-0.7C16,14.6,15.8,14.6,15.6,14.6z
		 M15.5,17.5c0,0.1,0,0.2-0.1,0.3c0,0.1-0.1,0.1-0.2,0.1c-0.1,0-0.1,0-0.2,0c-0.1,0-0.1-0.1-0.2-0.1v-2.3c0.1-0.1,0.1-0.1,0.2-0.1
		c0.1,0,0.1,0,0.2,0c0.1,0,0.2,0,0.2,0.1c0.1,0.1,0.1,0.2,0.1,0.3V17.5z"/>
	<path fill="#FFFFFF" d="M12.9,17.4c-0.1,0.1-0.1,0.1-0.2,0.2c-0.1,0.1-0.2,0.1-0.2,0.1c-0.1,0-0.1,0-0.2-0.1c0,0,0-0.1,0-0.2v-2.9
		h-0.7v3.1c0,0.2,0,0.4,0.1,0.5c0.1,0.1,0.2,0.2,0.4,0.2c0.1,0,0.3,0,0.4-0.1c0.1-0.1,0.3-0.2,0.4-0.3v0.4h0.7v-3.7h-0.7V17.4z"/>
	<path fill="#FFFFFF" d="M13.7,1c-6.6,0-12,5.4-12,12c0,6.6,5.4,12,12,12s12-5.4,12-12C25.7,6.4,20.3,1,13.7,1z M15.6,6.9h0.8v3.1
		c0,0.1,0,0.2,0.1,0.2c0,0,0.1,0.1,0.2,0.1c0.1,0,0.1,0,0.2-0.1c0.1-0.1,0.2-0.1,0.3-0.2V6.9H18V11h-0.8v-0.5
		c-0.2,0.2-0.3,0.3-0.5,0.4c-0.2,0.1-0.3,0.1-0.5,0.1c-0.2,0-0.3-0.1-0.4-0.2c-0.1-0.1-0.1-0.3-0.1-0.6V6.9z M12.5,7.9
		c0-0.3,0.1-0.6,0.3-0.8c0.2-0.2,0.5-0.3,0.9-0.3c0.3,0,0.6,0.1,0.9,0.3C14.9,7.3,15,7.6,15,7.9V10c0,0.4-0.1,0.6-0.3,0.8
		c-0.2,0.2-0.5,0.3-0.9,0.3c-0.4,0-0.7-0.1-0.9-0.3c-0.2-0.2-0.3-0.5-0.3-0.8V7.9z M10.2,5.5l0.6,2.2h0.1l0.6-2.2h1l-1.1,3.3V11
		h-0.9V8.8L9.3,5.5H10.2z M21.2,17.2c0,1.5-1.2,2.7-2.7,2.7H9.2c-1.5,0-2.7-1.2-2.7-2.7V15c0-1.5,1.2-2.7,2.7-2.7h9.3
		c1.5,0,2.7,1.2,2.7,2.7V17.2z"/>
	<path fill="#FFFFFF" d="M17.8,14.5c-0.3,0-0.6,0.1-0.8,0.3c-0.2,0.2-0.3,0.5-0.3,0.8v1.7c0,0.4,0.1,0.6,0.3,0.8
		c0.2,0.2,0.5,0.3,0.8,0.3c0.4,0,0.6-0.1,0.8-0.3c0.2-0.2,0.3-0.5,0.3-0.9v-0.2h-0.8v0.2c0,0.2,0,0.4-0.1,0.4c0,0.1-0.1,0.1-0.3,0.1
		c-0.1,0-0.2,0-0.3-0.1c0-0.1-0.1-0.2-0.1-0.4v-0.7h1.4v-1c0-0.4-0.1-0.6-0.3-0.8C18.4,14.6,18.2,14.5,17.8,14.5z M18.1,16h-0.7
		v-0.4c0-0.2,0-0.3,0.1-0.3c0.1-0.1,0.1-0.1,0.3-0.1c0.1,0,0.2,0,0.2,0.1c0.1,0.1,0.1,0.2,0.1,0.3V16z"/>
</g>
</svg>
