<?xml version="1.0" encoding="utf-8"?>
<!-- Generator: Adobe Illustrator 19.1.0, SVG Export Plug-In . SVG Version: 6.00 Build 0)  -->
<svg version="1.1" id="Layer_1" xmlns="http://www.w3.org/2000/svg" xmlns:xlink="http://www.w3.org/1999/xlink" x="0px" y="0px"
	 width="400px" height="400px" viewBox="-55 57 400 400" style="enable-background:new -55 57 400 400;" xml:space="preserve">
<style type="text/css">
	.st0{fill:#FFFFFF;}
</style>
<path class="st0" d="M262.1,192.4v213.8c0,11.8-9.6,21.4-21.4,21.4H48.3c-11.8,0-21.4-9.6-21.4-21.4V192.4
	c-11.8,0-21.4-9.6-21.4-21.4v-21.4c0-11.8,9.6-21.4,21.4-21.4H91V96.1c0-5.9,4.8-10.7,10.7-10.7h85.5c5.9,0,10.7,4.8,10.7,10.7v32.1
	h64.2c11.8,0,21.4,9.6,21.4,21.4V171C283.5,182.8,273.9,192.4,262.1,192.4z M48.3,203v10.7v181.8c0,5.9,4.8,10.7,10.7,10.7h171
	c5.9,0,10.7-4.8,10.7-10.7V213.7V203v-10.7H230H59H48.3V203z M176.6,106.8h-64.2v21.4h64.2V106.8z M251.4,149.6h-64.2h-85.5H37.6
	c-5.9,0-10.7,4.8-10.7,10.7c0,5.9,4.8,10.7,10.7,10.7h10.7h192.5h10.7c5.9,0,10.7-4.8,10.7-10.7
	C262.1,154.4,257.3,149.6,251.4,149.6z M112.4,384.8H91V235.1h21.4V384.8z M155.2,384.8h-21.4V235.1h21.4V384.8z M198,384.8h-21.4
	V235.1H198V384.8z"/>
</svg>
