<?xml version="1.0" encoding="utf-8"?>
<!-- Generator: Adobe Illustrator 19.1.0, SVG Export Plug-In . SVG Version: 6.00 Build 0)  -->
<svg version="1.1" id="Layer_1" xmlns="http://www.w3.org/2000/svg" xmlns:xlink="http://www.w3.org/1999/xlink" x="0px" y="0px"
	 width="313.6px" height="17px" viewBox="0 0 313.6 17" style="enable-background:new 0 0 313.6 17;" xml:space="preserve">
<path d="M118.6,17.1C118.6,17.1,118.6,17.1,118.6,17.1C118.6,17.1,118.6,17.1,118.6,17.1C118.6,17.1,118.6,17.1,118.6,17.1z
	 M312.2,3.5c0,0,0-0.1,0-0.2l0-0.3c0-0.2,0-0.3-0.1-0.3c-0.1-0.1-0.1-0.1-0.2-0.2c0.1-0.1,0.2-0.1,0.3-0.2c0.1-0.1,0.1-0.2,0.1-0.4
	c0-0.3-0.1-0.5-0.4-0.6c-0.1-0.1-0.3-0.1-0.5-0.1h-1.2v2.6h0.4V2.7h0.8c0.1,0,0.2,0,0.3,0c0.1,0.1,0.2,0.2,0.2,0.3l0,0.4
	c0,0.1,0,0.2,0,0.2c0,0,0,0.1,0,0.1h0.4V3.7C312.2,3.7,312.2,3.6,312.2,3.5z M311.7,2.3c-0.1,0.1-0.2,0.1-0.4,0.1h-0.8V1.5h0.8
	c0.1,0,0.2,0,0.3,0.1c0.1,0.1,0.2,0.2,0.2,0.4C311.8,2.1,311.8,2.2,311.7,2.3z M90.1,7.3l-3.9-0.9C85,6.2,84,5.5,84,4
	c0-1.5,1.4-2.9,3.5-2.9c2,0,3.8,1.4,4.5,3.3c0.1,0.3,0.1,0.5,0.2,0.8c0,0.2,0.2,0.4,0.4,0.4c0.2,0,0.4-0.2,0.4-0.4c0,0,0,0,0-0.1
	C93,4.8,92.8,4,92.7,3.1c-0.1-0.7-0.1-1.6-0.1-2.3c0-0.3-0.2-0.4-0.4-0.4c-0.2,0-0.4,0.2-0.4,0.3c-0.7-0.2-2.2-0.4-4-0.4
	c-2.8,0-5.5,1.8-5.5,5c0,2.6,1.5,4,3.7,4.5l3.7,0.8c1.6,0.3,2.1,1,2.2,2.4c0,1.6-1.5,3-3.7,3c-2.7,0-4-1.9-4.6-3.3
	c-0.1-0.4-0.1-0.8-0.1-1.3c0-0.3-0.3-0.4-0.4-0.4c-0.2,0-0.4,0.2-0.4,0.4c0,0,0,0.1,0,0.1c0,0.6,0.1,1.5,0.1,2.4c0,0.4,0,0.8,0,1.2
	c0,0.4,0,0.8,0,1.2c0,0.1,0,0.2,0.1,0.3c0.1,0.1,0.2,0.1,0.3,0.1c0.2,0,0.4-0.2,0.4-0.3c0-0.1,0-0.1,0.1-0.2
	c1.3,0.3,2.6,0.6,4.5,0.6h0c2.8,0,5.8-1.7,5.8-5.3C93.8,8.9,92.1,7.7,90.1,7.3z M134.3,0.4c-1,0-1.1,0.1-2,0.1
	c-0.9,0-1.5-0.1-2.4-0.1c-0.2,0-0.4,0-0.5,0.3c0,0.3,0.4,0.3,0.5,0.3c0.3,0,0.8,0.1,1.1,0.1c0,0.1,0.1,0.3,0.1,0.6
	c0,0.3,0,0.7-0.1,1.2c-0.3,1.5-0.9,3-1.7,4.7c-1.5,3.2-2.2,4.7-2.6,5.5c-1.6-3.3-4.7-9.9-5-11c0-0.2-0.1-0.3-0.1-0.4
	c0-0.4,0.1-0.5,0.5-0.7c0.2-0.1,0.3-0.1,0.6-0.1c0.2,0,0.4-0.1,0.4-0.3c0-0.2-0.3-0.3-0.4-0.3c-1.2,0-1.9,0.1-3,0.1
	c-1.1,0-1.9-0.1-2.8-0.1c-0.2,0-0.4,0.1-0.5,0.3c0,0.3,0.3,0.3,0.5,0.3c0.1,0,0.3,0,0.5,0.1c0.7,0.1,1.1,0.6,1.4,1.3
	c0.8,1.7,1.8,3.9,3,6.3l0,0.1c-0.2,0.3-0.6,1.3-1,1.9c-0.4,0.7-1,1.7-1.3,2.3c-2-3.9-3.9-8.1-5-10.8c-0.1-0.2-0.1-0.3-0.1-0.4
	c0-0.3,0.2-0.5,0.6-0.6c0.2-0.1,0.4-0.1,0.6-0.1c0.1,0,0.4-0.1,0.4-0.4c-0.1-0.4-0.4-0.3-0.4-0.3c-1.2,0-1.9,0.1-3,0.1
	c-1.1,0-1.8-0.1-3-0.1c-0.2,0-0.4,0.1-0.5,0.3c0,0.3,0.3,0.3,0.4,0.3c0.3,0,0.4,0,0.7,0.1c0.7,0.2,0.9,0.6,1.4,1.4
	c1,1.7,1.9,3.9,3,6.4c1.4,3,2.3,5.1,3.1,7.1c0.3,0.7,0.4,0.9,0.7,0.9c0,0,0,0,0,0c0.3-0.1,0.3-0.3,0.4-0.4c0.1-0.2,0.2-0.4,0.2-0.4
	c1.1-2.4,1.5-3.2,2.8-5.7l0.3-0.5l0.4,1c1,2.2,1.3,2.9,2.2,5.3c0.2,0.4,0.2,0.7,0.6,0.8c0,0,0,0,0.1,0l0.2,0V17c0,0,0-0.1,0.1-0.1
	c0.2-0.2,0.4-0.7,0.5-0.9c1.5-3.2,1.9-4.2,3.4-7.4c1.2-2.5,3-6.2,3.2-6.6c0.2-0.3,0.5-0.7,0.5-0.7c0,0,0,0,0,0
	c0.1-0.1,0.5-0.2,0.8-0.2c0.1,0,0.2,0,0.3-0.1c0.1-0.1,0.1-0.2,0.1-0.3C134.7,0.4,134.4,0.4,134.3,0.4z M68.3,0.5
	c-0.9,0-1.3,0.1-2,0.1c-0.8,0-1.1-0.1-2-0.1c-0.2,0-0.4,0.2-0.4,0.4c0,0.1,0,0.2,0.1,0.3c0.1,0.1,0.2,0.1,0.3,0.1
	c0.3,0,0.6,0,0.9,0.1c0,0,0,0,0,0c0.4,0.8,0.7,6.4,0.6,9.5v1.3L55,0.5l-0.1,0c0,0-1.1,0-1.7,0c-0.8,0-1.1,0-2,0
	c-0.2,0-0.4,0.2-0.4,0.4c0,0.1,0,0.2,0.1,0.3c0.1,0.1,0.2,0.1,0.3,0.1h0.4c0.2,0,0.3,0,1.2,1.2V6c0,2.6-0.1,5-0.2,6.7
	c-0.1,0.9-0.1,1.6-0.2,2.1c0,0.3-0.1,0.5-0.1,0.6c0,0.1,0,0.1-0.1,0.2c0,0,0,0,0,0c-0.3,0-0.5,0-0.8,0c-0.2,0-0.4,0.2-0.4,0.4
	c0,0.2,0.2,0.4,0.4,0.4c0.8,0,1.2,0,2,0c0.7,0,1.5,0,2,0c0.2,0,0.4-0.2,0.4-0.4c0-0.2-0.2-0.4-0.4-0.4c-0.3,0-0.6,0-0.9-0.1
	c0,0-0.1-0.1-0.1-0.3c-0.5-1.5-0.8-6.9-0.8-9.3V3.2C64,14.4,63.7,14,65.9,16.4l0.1,0.1h0.1c0,0,0.1,0,0.1,0c0.1,0,0.2,0,0.3-0.1
	c0.1-0.1,0.2-0.2,0.2-0.4V9.6c0-6.5,0.5-8.1,0.7-8.3c0.4,0,0.6,0,0.9,0c0.2,0,0.4-0.2,0.4-0.4C68.7,0.7,68.5,0.5,68.3,0.5z
	 M21.8,0.3c-0.8,0-1.3,0-1.9,0c-0.3,0-0.6,0-1,0l-0.6,0l-0.1,0l-0.1,0.1c-1.3,2.4-2.2,3.7-3.6,6.1c-1,1.6-1.6,2.6-2.6,4.2
	c-1.4-1.9-2.2-3.1-3.6-5.1C7,3.5,6.2,2.4,5,0.4L4.9,0.3L2.1,0.3H0.9c-0.1,0-0.4,0.1-0.4,0.3c0,0.1,0,0.2,0.1,0.3C0.7,1,0.8,1,0.9,1
	c0.2,0,0.4,0,0.7,0.1c0.1,0,1,0.9,1.4,1.2v2.8c0,2.9-0.1,5.5-0.3,7.3c-0.1,1.7-0.4,3-0.6,3.2c-0.4,0-0.8,0.1-1.1,0.1
	c-0.2,0-0.4,0.1-0.4,0.3c0,0.2,0.3,0.3,0.4,0.3c1,0,1.5-0.1,2.5-0.1c0.9,0,1.5,0.1,2.5,0.1c0.2,0,0.4-0.1,0.4-0.3
	c0-0.2-0.3-0.3-0.4-0.3c-0.4,0-0.7-0.1-1.2-0.1c-0.6-0.9-0.8-6.2-0.9-10c0-0.4,0-0.9,0-1.3c0-0.4,0-0.8,0-1.1L4,3.6
	c0.7,0.9,3.7,5.6,6.2,9.5c0.2,0.2,0.2,0.5,0.6,0.5c0.3,0,0.4-0.2,0.6-0.5c0.2-0.4,2.4-3.8,3.9-6.2c1-1.6,1.6-2.7,2.5-4.2
	c0,1.2,0.1,3.4,0.1,5.1c0,2.4,0,5.7,0,6.3c0,1.3-0.3,1.4-0.8,1.5c-0.3,0-0.5,0.1-0.8,0.1c-0.2,0-0.4,0.1-0.4,0.3
	c0,0.1,0,0.2,0.1,0.3c0.1,0.1,0.2,0.1,0.3,0.1c1.1,0,1.7-0.1,2.8-0.1c1.1,0,1.7,0.1,2.7,0.1c0.2,0,0.4-0.1,0.4-0.3
	c0-0.1,0-0.2-0.1-0.3c-0.1-0.1-0.2-0.1-0.3-0.1c-0.3,0-0.4,0-0.7-0.1c-0.5-0.1-0.7-0.5-0.7-0.9c0-0.5,0-2.9,0-5.2c0-0.6,0-1.2,0-1.7
	c0-2.2,0.1-5.1,0.1-5.7c0-0.5,0.4-1.1,0.7-1.1C21.4,1,21.5,1,21.8,1c0.1,0,0.4-0.1,0.4-0.3c0-0.1,0-0.2-0.1-0.3
	C22,0.4,21.9,0.3,21.8,0.3z M75,0.3c-0.8,0-1.5,0.6-1.5,1.4c0,0.8,0.5,1.5,1.2,1.5c0.3,0,0.5-0.1,0.7-0.1C75.4,3.5,75,4.2,74.2,5
	c-0.1,0.1-0.1,0.2-0.1,0.3c0,0.1,0,0.1,0.1,0.2c0.1,0.1,0.2,0.2,0.3,0.2h0c0.1,0,0.2,0,0.2-0.1c1.2-1,2-2,2-3.6
	C76.7,1.1,76,0.3,75,0.3z M43,11.7C42.9,11.7,42.9,11.7,43,11.7c-0.3,0-0.4,0.2-0.5,0.4c-0.3,1.1-0.2,0.7-0.5,1.4
	c-0.4,0.4-1.4,1.2-2,1.5c-0.8,0.3-2.1,0.7-5.1,0.7c-0.6,0-0.8-0.4-0.8-0.9v-6h0.3c0.8,0,0.4,0,1.4,0c1.3,0,2.1,0.4,2.5,1V11
	c0,0.2,0.2,0.5,0.4,0.5c0.1,0,0.2,0,0.3-0.1c0.1-0.1,0.1-0.2,0.1-0.3V5.6c0-0.1,0-0.2-0.1-0.3c-0.1-0.1-0.2-0.2-0.3-0.2
	c-0.1,0-0.2,0-0.3,0.1c-0.1,0.1-0.1,0.2-0.1,0.3v0.9c-0.5,0.9-1.2,1.4-2.5,1.4h-1.5c-0.1,0-0.1,0-0.1,0l0,0c0,0,0-0.1,0-0.3V2.3
	c0-0.5,0.2-1,0.8-1h1.9c1.7,0,3.4,0.8,4.4,1.8l0.2,0.2c0.2,0.5,0.4,1.3,0.5,1.6c0,0.1,0.1,0.3,0.4,0.3c0,0,0,0,0.1,0
	c0.1,0,0.3-0.2,0.3-0.4c0,0,0-0.1,0-0.1c-0.3-1.7-0.4-2.6-0.6-4.3c0-0.2-0.2-0.5-0.4-0.5c-0.3,0-0.5,0.3-0.5,0.5c-0.1,0-0.2,0-0.5,0
	H30.1c-0.2,0-0.4,0.2-0.4,0.4c0,0.1,0,0.2,0.1,0.3c0.1,0.1,0.2,0.1,0.3,0.1h0.7c0.2,0,0.5,0.3,0.5,1.1v12.1c0,1.1-0.2,1.2-0.5,1.2
	H30c-0.2,0-0.4,0.2-0.4,0.4c0,0.1,0.1,0.4,0.4,0.4c0.4,0,1.8,0,3.3,0c0.8,0,1.6,0,2.3,0c1.1,0,2.6,0,3.8,0.1c0.6,0,1.1,0,1.5,0
	c0.2,0,0.3,0,0.4,0c0,0.2,0.2,0.4,0.4,0.4c0,0,0,0,0.1,0c0.2,0,0.4-0.1,0.5-0.4c0.3-1.8,0.6-2.6,1-4.3c0-0.1,0-0.1,0-0.2
	C43.3,11.9,43.2,11.7,43,11.7z M153.5,11.7C153.5,11.7,153.4,11.7,153.5,11.7c-0.3,0-0.4,0.2-0.5,0.4c-0.3,1.1-0.2,0.7-0.5,1.4
	c-0.4,0.4-1.4,1.2-2,1.5c-0.8,0.3-2.1,0.7-5.1,0.7c-0.6,0-0.8-0.4-0.8-0.9v-6h0.3c0.8,0,0.4,0,1.4,0c1.3,0,2.1,0.4,2.5,1V11
	c0,0.2,0.2,0.5,0.4,0.5c0.1,0,0.2,0,0.3-0.1c0.1-0.1,0.1-0.2,0.1-0.3V5.6c0-0.1,0-0.2-0.1-0.3c-0.1-0.1-0.2-0.2-0.3-0.2
	c-0.1,0-0.2,0-0.3,0.2c-0.1,0.1-0.1,0.2-0.1,0.3v0.9c-0.5,0.9-1.2,1.4-2.5,1.4h-1.5c-0.1,0-0.1,0-0.1,0c0,0,0-0.1,0-0.3V2.3
	c0-0.5,0.2-1,0.8-1h1.9c1.7,0,3.4,0.8,4.4,1.8l0.2,0.2c0.2,0.5,0.4,1.3,0.5,1.6c0,0.1,0.1,0.3,0.4,0.3c0,0,0,0,0.1,0
	c0.1,0,0.3-0.2,0.3-0.4c0,0,0-0.1,0-0.1c-0.3-1.7-0.5-2.6-0.6-4.3c0-0.2-0.2-0.5-0.4-0.5c-0.3,0-0.5,0.3-0.5,0.5c-0.1,0-0.2,0-0.5,0
	h-10.5c-0.2,0-0.4,0.2-0.4,0.4c0,0.1,0,0.2,0.1,0.3c0.1,0.1,0.2,0.1,0.3,0.1h0.7c0.2,0,0.5,0.3,0.5,1.1v12.1c0,1.1-0.2,1.2-0.5,1.2
	h-0.8c-0.2,0-0.4,0.2-0.4,0.4c0,0.1,0.1,0.4,0.4,0.4c0.4,0,1.8,0,3.3,0c0.8,0,1.6,0,2.3,0c1.1,0,2.6,0,3.8,0.1c0.6,0,1.1,0,1.5,0.1
	c0.2,0,0.3,0,0.4,0c0,0.2,0.2,0.4,0.4,0.4c0,0,0,0,0.1,0c0.2,0,0.4-0.1,0.5-0.4c0.3-1.8,0.6-2.6,1-4.3c0-0.1,0-0.1,0-0.2
	C153.8,11.9,153.7,11.7,153.5,11.7z M283,7.3l-3.9-0.9c-1.1-0.3-2.1-1-2.1-2.4c0-1.5,1.5-2.9,3.5-2.9c2,0,3.9,1.4,4.5,3.3
	c0.1,0.3,0.1,0.5,0.2,0.8c0,0.2,0.2,0.4,0.4,0.4c0.2,0,0.4-0.2,0.4-0.4c0,0,0,0,0-0.1c-0.1-0.3-0.2-1.1-0.3-2.1
	c-0.1-0.7-0.1-1.6-0.1-2.3c0-0.3-0.2-0.4-0.4-0.4c-0.2,0-0.4,0.2-0.4,0.3c-0.8-0.2-2.2-0.4-4-0.4c-2.8,0-5.5,1.8-5.5,5
	c0,2.6,1.5,4,3.7,4.5l3.7,0.8c1.6,0.3,2.1,1,2.1,2.4c0,1.6-1.5,3-3.7,3c-2.7,0-4-1.9-4.6-3.3c-0.1-0.4-0.1-0.8-0.1-1.3
	c0-0.3-0.3-0.4-0.4-0.4c-0.2,0-0.4,0.2-0.4,0.4c0,0,0,0.1,0,0.1c0,0.6,0.1,1.5,0.1,2.4c0,0.4,0,0.8,0,1.2c0,0.4,0,0.8,0,1.2
	c0,0.1,0,0.3,0.1,0.3c0.1,0.1,0.2,0.1,0.3,0.1c0.2,0,0.4-0.2,0.4-0.3c0-0.1,0-0.1,0.1-0.2c1.3,0.3,2.6,0.6,4.6,0.6
	c2.8,0,5.8-1.7,5.8-5.3C286.7,8.9,285,7.7,283,7.3z M236.2,0.3c-4.5,0-8.8,2.9-8.8,8.1c0,5.2,4.2,8.3,8.9,8.3c4.7,0,8.8-3.2,8.8-8.3
	C245.1,3.1,240.9,0.3,236.2,0.3z M236.3,15.8c-3.8,0-5.8-2.9-5.8-7.4c0-4.5,2-7.2,5.7-7.2c3.8,0,5.7,2.7,5.8,7.2
	C242,12.6,240.2,15.8,236.3,15.8z M268.3,0.5c-0.9,0-1.3,0.1-2.1,0.1c-0.9,0-1.4-0.1-2.2-0.1c-0.1,0-0.2,0-0.3,0.1
	c-0.1,0.1-0.1,0.2-0.1,0.3c0,0.1,0,0.2,0.1,0.3c0.1,0.1,0.2,0.1,0.3,0.1c0.3,0,0.7,0.1,1.1,0.1c0.6,1.4,0.7,2.6,0.7,8.8v0.4
	c0,3.1-1.7,5.2-5.1,5.2c-3.5,0-4.7-2.1-4.7-5V2.3c0-0.7,0.4-1.1,0.6-1.1h0.7c0.2,0,0.4-0.2,0.4-0.4c0-0.1-0.1-0.4-0.4-0.4
	c-1.1,0-1.6,0.1-2.7,0.1c-0.9,0-1.6-0.1-2.6-0.1c-0.2,0-0.4,0.2-0.4,0.4c0,0.1,0.1,0.4,0.4,0.4h0.7c0.2,0,0.5,0.3,0.5,1.1v8.4
	c0,2.1,0.7,3.7,2,4.6c1.3,1,3.1,1.4,5.3,1.4h0c2.2,0,3.7-0.6,4.7-1.7c1-1.1,1.5-2.6,1.5-4.5v-0.4c0-6.4,0.2-7.7,0.7-8.8
	c0.4,0,0.7-0.1,1.1-0.1c0.2,0,0.4-0.2,0.4-0.4C268.8,0.6,268.6,0.5,268.3,0.5z M306.9,11.7C306.9,11.7,306.8,11.7,306.9,11.7
	c-0.3,0-0.4,0.2-0.5,0.4c-0.3,1.1-0.2,0.7-0.5,1.4c-0.4,0.4-1.4,1.2-2,1.5c-0.8,0.3-2.1,0.7-5.1,0.7c-0.6,0-0.8-0.4-0.8-0.9v-6h0.3
	c0.8,0,0.4,0,1.4,0c1.3,0,2.1,0.4,2.5,1V11c0,0.2,0.2,0.5,0.4,0.5c0.1,0,0.2,0,0.3-0.1c0.1-0.1,0.1-0.2,0.1-0.3V5.6
	c0-0.1,0-0.2-0.1-0.3c-0.1-0.1-0.2-0.2-0.3-0.2c-0.1,0-0.2,0-0.3,0.2c-0.1,0.1-0.1,0.2-0.1,0.3v0.9c-0.5,0.9-1.2,1.4-2.5,1.4
	c-0.3,0-1.4,0-1.5,0c-0.1,0-0.1,0-0.1,0c0,0,0-0.1,0-0.3V2.3c0-0.5,0.2-1,0.8-1h1.9c1.7,0,3.4,0.8,4.4,1.8l0.2,0.2
	c0.2,0.5,0.4,1.3,0.5,1.6c0,0.1,0.1,0.3,0.4,0.3c0,0,0,0,0.1,0c0.2,0,0.3-0.2,0.3-0.4c0,0,0,0,0-0.1c-0.3-1.7-0.5-2.6-0.6-4.3
	c0-0.2-0.2-0.5-0.4-0.5c-0.3,0-0.5,0.3-0.5,0.5c-0.1,0-0.2,0-0.5,0H294c-0.2,0-0.4,0.2-0.4,0.4c0,0.1,0,0.2,0.1,0.3
	c0.1,0.1,0.2,0.1,0.3,0.1h0.7c0.2,0,0.5,0.3,0.5,1.1v12.1c0,1.1-0.2,1.2-0.5,1.2c-0.3,0-0.5,0-0.8,0c-0.2,0-0.4,0.2-0.4,0.4
	c0,0.1,0.1,0.4,0.4,0.4c0.4,0,1.8,0,3.3,0c0.8,0,1.6,0,2.3,0c1.1,0,2.6,0,3.8,0.1c0.6,0,1.1,0,1.5,0.1c0.2,0,0.3,0,0.4,0
	c0,0.2,0.2,0.4,0.4,0.4c0,0,0,0,0.1,0c0.2,0,0.4-0.1,0.5-0.4c0.3-1.8,0.6-2.6,1-4.3c0-0.1,0-0.1,0-0.2
	C307.2,11.9,307.1,11.7,306.9,11.7z M219.5,1.3h0.7c0.2,0,0.4-0.2,0.4-0.4c0-0.1,0-0.2-0.1-0.3c-0.1-0.1-0.2-0.1-0.3-0.1
	c-1.1,0-1.6,0.1-2.7,0.1c-1,0-1.6-0.1-2.6-0.1c-0.2,0-0.4,0.2-0.4,0.4c0,0.1,0.1,0.4,0.4,0.4h0.7c0.3,0,0.6,0.3,0.6,1.1l0,5h-8.8v-5
	c0-0.7,0.4-1.1,0.6-1.1h0.7c0.2,0,0.4-0.2,0.4-0.4c0-0.2-0.1-0.4-0.4-0.4c-1.1,0-1.8,0.1-2.9,0.1c-1,0-1.5-0.1-2.5-0.1
	c-0.2,0-0.4,0.2-0.4,0.4c0,0.1,0.1,0.4,0.4,0.4h0.7c0.2,0,0.5,0.3,0.5,1.1v12.1c0,1.1-0.2,1.2-0.5,1.2c-0.3,0-0.5,0-0.8,0
	c-0.2,0-0.4,0.2-0.4,0.4c0,0.1,0.1,0.4,0.4,0.4c1,0,1.6-0.1,2.5-0.1c1.1,0,1.7,0.1,2.8,0.1c0.2,0,0.4-0.2,0.4-0.4
	c0-0.2-0.2-0.4-0.4-0.4c-0.3,0-0.5,0-0.7,0c-0.3,0-0.5-0.2-0.5-1.2V8.2h8.8v6.2c0,1-0.4,1.2-0.6,1.2c-0.3,0-0.4,0-0.7,0
	c-0.2,0-0.4,0.2-0.4,0.4c0,0.1,0.1,0.4,0.4,0.4c1,0,1.6-0.1,2.6-0.1c1,0,1.6,0.1,2.7,0.1c0.2,0,0.4-0.2,0.4-0.4c0-0.1,0-0.2-0.1-0.3
	c-0.1-0.1-0.2-0.1-0.3-0.1c-0.3,0-0.4,0-0.7,0c-0.2,0-0.5-0.3-0.5-1.2l0-12.2C219.1,1.5,219.3,1.3,219.5,1.3z M174.8,15.7
	c-0.5-0.1-0.7-0.3-1.2-1.4c-0.9-1.7-1.7-3.8-2.8-6.2c-1.2-2.8-2.3-5.2-3.2-7.4c0-0.2-0.2-0.5-0.5-0.5c-0.3,0-0.4,0.3-0.5,0.4
	c-1.3,3.1-2,4.8-3.4,7.9c-1.1,2.5-2.7,6-2.9,6.5c-0.1,0.3-0.3,0.5-0.4,0.6c-0.3,0-0.4,0.1-0.8,0.1c-0.2,0-0.4,0.1-0.4,0.4
	c0,0.1,0,0.2,0.1,0.3c0.1,0.1,0.2,0.1,0.3,0.1c0.9,0,1.3-0.1,2.1-0.1c0.8,0,1.3,0.1,2.2,0.1c0.2,0,0.4-0.2,0.4-0.4
	c0-0.2-0.2-0.4-0.4-0.4c-0.3,0-0.7-0.1-0.9-0.1c-0.1-0.2-0.2-0.4-0.2-0.8c0-0.2,0-0.5,0-0.8c0.2-1.1,0.2-1.6,0.6-2.7l0.1-0.4h5.6
	l0.3,0.6c0.6,1.2,0.9,1.9,1.3,3.2c0.1,0.2,0.1,0.4,0.1,0.5c0,0.2,0,0.3-0.3,0.4c-0.1,0.1-0.3,0.1-0.5,0.1c-0.1,0-0.2,0-0.3,0.1
	c-0.1,0.1-0.1,0.2-0.1,0.3c0,0.1,0,0.2,0.1,0.3c0.1,0.1,0.2,0.1,0.3,0.1c1.1,0,1.7-0.1,2.7-0.1c0.8,0,1.1,0.1,2.2,0.1
	c0.1,0,0.2,0,0.3-0.1c0.1-0.1,0.1-0.2,0.1-0.3C175.2,15.8,174.9,15.7,174.8,15.7z M168.5,10c-1.3,0-2.2,0-3.5,0c-0.4,0-1,0-1.3,0
	c0.3-0.9,0.9-2.3,1.5-3.7c0.3-0.6,0.6-1.3,0.9-1.7c0.1,0.1,0.2,0.3,0.2,0.4c0.9,1.8,1.3,2.8,2.1,4.7C168.4,9.8,168.5,9.9,168.5,10
	L168.5,10z M194.9,15.7c-0.9,0-0.9-0.1-1.2-0.5c-1.1-1.7-1.5-2.3-2.2-3.4c-0.6-1-1.1-1.8-1.8-2.7c2.2-0.2,4-1.7,4-4.1
	c0-3.1-2.5-4.5-5.5-4.5c-1.2,0-2.9,0.1-4.2,0.1c-1.1,0-1.7-0.1-2.8-0.1c-0.2,0-0.4,0.2-0.4,0.4c0,0.1,0,0.2,0.1,0.3
	c0.1,0.1,0.2,0.1,0.3,0.1h0.8c0.3,0,0.5,0.3,0.5,1.1v12.3c0,1-0.1,1.1-0.4,1.1h-0.9c-0.2,0-0.4,0.2-0.4,0.4c0,0.1,0,0.2,0.1,0.3
	c0.1,0.1,0.2,0.1,0.3,0.1c1.1,0,1.8-0.1,2.8-0.1c1,0,1.6,0,2.5,0.1c0.1,0,0.2,0,0.3-0.1c0.1-0.1,0.1-0.2,0.1-0.3
	c0-0.2-0.2-0.4-0.4-0.4c-0.3,0-0.5,0-0.9-0.1c-0.4,0-0.4-0.2-0.4-0.9V9.5c0.1-0.4,0-0.3,0.2-0.3c0.2,0,0.5,0.1,0.7,0.2
	c0.7,0.4,1,0.8,2.3,3c0.9,1.5,2.2,3.6,2.4,4.1l0.1,0.1l0.1,0c0.5,0,1.3-0.1,2.1-0.1c0.4,0,0.7,0,1.1,0c0.2,0,0.3,0,0.5,0
	c0.1,0,0.2,0,0.3-0.1c0.1-0.1,0.1-0.2,0.1-0.3C195.3,15.8,195.1,15.7,194.9,15.7z M188.7,8.3c-0.5,0.1-1,0.2-1.4,0.2
	c-0.6,0-1.1,0-1.7-0.1c-0.2,0-0.2-0.1-0.2-0.4V1.7c0-0.4,0-0.3,0.1-0.3c0.8,0,1,0,2,0.1c1.8,0.1,3.1,1.2,3.1,3.6
	C190.6,6.2,190,7.9,188.7,8.3z M311.2,0.1c-1.4,0-2.5,1.1-2.5,2.5c0,1.4,1.1,2.5,2.5,2.5c1.4,0,2.5-1.1,2.5-2.5
	C313.6,1.2,312.5,0.1,311.2,0.1z M311.2,4.8c-1.2,0-2.2-1-2.2-2.2c0-1.2,1-2.2,2.2-2.2c1.2,0,2.2,1,2.2,2.2
	C313.4,3.8,312.4,4.8,311.2,4.8z"/>
</svg>
